<?xml version="1.0" encoding="UTF-8"?>
<svg width="48px" height="48px" viewBox="0 0 48 48" version="1.1" xmlns="http://www.w3.org/2000/svg" xmlns:xlink="http://www.w3.org/1999/xlink">
    <!-- Generator: Sketch 64 (93537) - https://sketch.com -->
    <title>Oval-Copy-2</title>
    <desc>Created with Sketch.</desc>
    <g id="Oval-Copy-2" stroke="none" stroke-width="1" fill="none" fill-rule="evenodd">
        <path d="M41.8900962,26.0004182 C40.8950175,35.0001178 33.2649638,42 24,42 C21.4182633,42 18.9634758,41.4564654 16.743826,40.4775845 L16.66306,35.3362868 L21.4835327,32.6434644 C22.2821199,32.8755684 23.1265287,33 24,33 C28.2829397,33 31.8671318,30.0083058 32.7768338,26.0006599 L36.6388852,28.7550554 L41.8900962,26.0004182 Z M10.5112147,23.4408031 L15.2509021,26.1191098 C15.6938882,27.9545891 16.6994533,29.5706574 18.0748826,30.7745999 L13.446045,32.417363 L12.8151484,38.1040634 C9.2273753,35.2550565 6.75168187,31.0660006 6.14474881,26.2935765 L10.5112147,23.4408031 Z M24.3346767,6.003049 C33.4481407,6.16922571 40.9070251,13.1084812 41.8900962,21.9995818 L37.4807861,24.7854875 L32.7767766,21.999088 C31.9383978,18.3061476 28.8290594,15.4759194 24.9947029,15.0543448 L27.4853089,10.9577104 L24.3346767,6.003049 Z M20.3613569,6.36795368 L23.4279332,10.5097846 L21.0262747,15.5028764 C18.1309953,16.5160648 15.9111626,18.9672078 15.2229972,22.0000846 L11.3495803,19.2868789 L6.10979295,22.0005845 C6.97060129,14.2112678 12.8016778,7.91983563 20.3613569,6.36795368 Z" id="Combined-Shape" fill="#01689B"></path>
    </g>
</svg>