<?xml version="1.0" encoding="UTF-8"?>
<svg width="40px" height="40px" viewBox="0 0 40 40" version="1.1" xmlns="http://www.w3.org/2000/svg" xmlns:xlink="http://www.w3.org/1999/xlink">
    <title>paper</title>
    <g id="Fase-2-vervolg" stroke="none" stroke-width="1" fill="none" fill-rule="evenodd">
        <g id="paper">
            <circle id="Oval" fill="#01689B" cx="20" cy="20" r="20"></circle>
            <path d="M31,9 L31,26 C31,29.0522847 29.0522847,31 26,31 L26,31 L12,31 L12,31 L11.775496,30.9958817 C9.41046832,30.9081726 8,29.4242424 8,27 L8,27 L8,21 L13.999,21 L14,9 L31,9 Z M14,22.999 L9.99648796,22.9996558 L10,27 C10,28.5 11,29 12,29 L12,29 C13,29 14,28.5 14,27 L14,22.999 Z M28,25 L17,25 L17,27 L28,27 L28,25 Z M28,21 L17,21 L17,23 L28,23 L28,21 Z M28,17 L17,17 L17,19 L28,19 L28,17 Z M28,13 L17,13 L17,15 L28,15 L28,13 Z" id="Combined-Shape" fill="#FFFFFF" fill-rule="nonzero"></path>
        </g>
    </g>
</svg>