<?xml version="1.0" encoding="utf-8"?>
<!-- Generator: Adobe Illustrator 16.0.0, SVG Export Plug-In . SVG Version: 6.00 Build 0)  -->
<!DOCTYPE svg PUBLIC "-//W3C//DTD SVG 1.1//EN" "http://www.w3.org/Graphics/SVG/1.1/DTD/svg11.dtd">
<svg version="1.1" id="Layer_1" xmlns="http://www.w3.org/2000/svg" xmlns:xlink="http://www.w3.org/1999/xlink" x="0px" y="0px"
	 width="11.003px" height="11.003px" viewBox="0 0 11.003 11.003" enable-background="new 0 0 11.003 11.003" xml:space="preserve">
<path d="M9.323,0.261L5.5,3.646L1.68,0.261c-0.4-0.356-1.008-0.346-1.398,0.021l0,0c-0.367,0.391-0.377,0.996-0.021,1.398
	l3.384,3.82l-3.384,3.82c-0.356,0.402-0.347,1.01,0.021,1.398l0,0c0.392,0.367,0.998,0.378,1.399,0.021l3.821-3.384l3.82,3.384
	c0.401,0.356,1.01,0.348,1.398-0.021l0,0c0.368-0.391,0.377-0.996,0.021-1.398l-3.385-3.82l3.385-3.82
	c0.355-0.402,0.347-1.008-0.021-1.398l0,0C10.331-0.084,9.723-0.095,9.323,0.261z M5.5,5.511L5.497,5.507L5.491,5.501l0.006-0.004
	L5.5,5.492l0.006,0.006l0.005,0.004L5.506,5.507L5.5,5.511z"/>
</svg>
